<svg xmlns="http://www.w3.org/2000/svg" width="170" height="170" viewBox="0 0 170 170" id="protect">
  <g>
    <g id="Merged">
      <path d="M163.775,57.065v-17.334c0-2.04-1.239-3.875-3.131-4.638L86.949,5.395s-.006-.002-.008-.003l-.072-.029c-.137-.055-.28-.081-.42-.124-.159-.048-.312-.108-.478-.141-.291-.057-.585-.083-.88-.089-.031,0-.06-.009-.091-.009s-.06.009-.091.009c-.295.005-.59.031-.88.089-.165.033-.319.092-.478.141-.14.042-.283.069-.42.124l-.072.029s-.006.002-.008.003L9.355,35.094c-1.892.763-3.131,2.598-3.131,4.638,0,0,0,17.334,0,17.334-1.022,42.485,30.353,108.293,78.776,107.961,48.422.333,79.804-65.492,78.775-107.962ZM153.158,68.032c-17.069,3.928-39.919,6.024-63.158,6.287V17.406l63.775,25.702c.437,8.526.248,16.846-.617,24.924ZM16.225,43.107l63.775-25.702v56.913c-23.239-.262-46.09-2.358-63.159-6.287-.866-8.08-1.055-16.401-.616-24.925ZM18.379,78.546c17.414,3.534,38.841,5.566,61.621,5.826v70.376c-8.912-.954-17.608-4.456-24.92-10.526-20.367-18.521-32.043-40.812-36.7-65.676ZM114.92,144.223c-7.313,6.07-16.008,9.572-24.92,10.526v-70.376c22.78-.26,44.207-2.292,61.621-5.826-4.653,24.857-16.321,47.136-36.701,65.676Z"></path>
    </g>
  </g>
</svg>
