<?xml version="1.0" encoding="UTF-8" standalone="no"?>
<!DOCTYPE svg PUBLIC "-//W3C//DTD SVG 1.1//EN" "http://www.w3.org/Graphics/SVG/1.1/DTD/svg11.dtd">
<svg width="100%" height="100%" viewBox="0 0 185 216" version="1.1" xmlns="http://www.w3.org/2000/svg" xmlns:xlink="http://www.w3.org/1999/xlink" xml:space="preserve" xmlns:serif="http://www.serif.com/" style="fill-rule:evenodd;clip-rule:evenodd;stroke-linejoin:round;stroke-miterlimit:2;">
    <g transform="matrix(1,0,0,1,-157.538798,-142.212815)">
        <g transform="matrix(1,0,0,1,0,-5.580384)">
            <g transform="matrix(0.475622,0,0,0.552181,110.291935,99.318333)">
                <path d="M362.475,463.252C336.388,473.213 307.62,478.194 276.169,478.194C245.449,478.194 218.953,472.874 196.681,462.234C174.409,451.594 156.073,437.434 141.673,419.756C127.273,402.077 116.617,382.597 109.705,361.317C102.793,340.037 99.337,318.594 99.337,296.986C99.337,271.45 104.041,246.324 113.449,221.606C122.857,196.889 136.681,174.463 154.921,154.329C173.161,134.194 195.433,118.071 221.737,105.958C248.041,93.844 278.089,87.788 311.881,87.788C345.673,87.788 356.992,94.223 367.1,98.31C379.744,103.422 393.831,109.82 403.753,117.007C421.609,129.938 436.777,145.162 449.257,162.677C461.737,180.192 471.337,199.098 478.057,219.396C484.777,239.694 488.137,260.156 488.137,280.781C488.137,308.609 483.049,334.472 472.873,358.371C462.697,382.27 448.297,403.223 429.673,421.229C419.797,430.778 408.867,439.199 396.884,446.493C391.22,437.417 385.638,428.341 380.137,419.265L378.23,416.117C382.113,413.572 385.917,410.857 389.641,407.97C406.537,394.874 420.265,377.932 430.825,357.143C441.385,336.354 446.665,311.228 446.665,281.763C446.281,263.102 443.305,244.85 437.737,227.008C432.169,209.166 423.913,192.633 412.969,177.409C402.025,162.186 388.105,149.336 371.209,138.86C360.841,131.985 351.625,126.828 343.561,123.391C339.714,121.751 335.904,119.277 321.308,119.217C292.893,119.098 270.505,123.718 247.657,132.721C224.809,141.724 205.513,154.247 189.769,170.289C174.025,186.33 161.929,204.746 153.481,225.535C145.033,246.324 140.809,268.668 140.809,292.567C140.809,326.942 147.241,355.506 160.105,378.26C172.969,401.013 189.769,417.955 210.505,429.086C231.241,440.217 252.745,445.783 275.017,445.783C294.217,445.783 313.897,442.754 334.057,436.698C337.327,435.715 372.393,418.576 377.771,416.302C377.962,416.221 378.117,416.159 378.23,416.117C384.031,425.683 390.743,436.638 396.884,446.493L362.475,463.252Z" style="fill:white;fill-rule:nonzero;"/>
            </g>
        </g>
    </g>
</svg>
