<?xml version="1.0" encoding="UTF-8" standalone="no"?>
<!DOCTYPE svg PUBLIC "-//W3C//DTD SVG 1.1//EN" "http://www.w3.org/Graphics/SVG/1.1/DTD/svg11.dtd">
<svg width="100%" height="100%" viewBox="0 0 500 500" version="1.1" xmlns="http://www.w3.org/2000/svg" xmlns:xlink="http://www.w3.org/1999/xlink" xml:space="preserve" xmlns:serif="http://www.serif.com/" style="fill-rule:evenodd;clip-rule:evenodd;stroke-linejoin:round;stroke-miterlimit:2;">
    <g transform="matrix(0.516938,0,0,0.516938,120.834244,122.60223)">
        <g transform="matrix(1.333333,0,0,1.333333,0,0.000006)">
            <path d="M136.91,190.031C126.066,192.879 114.262,192.949 103.117,193.105C100.035,193.148 96.957,193.172 93.871,193.215C98.578,199.055 105.789,202.793 113.875,202.793C114.188,202.793 114.496,202.781 114.809,202.77C117.805,213.613 127.742,221.578 139.551,221.578C141.547,221.578 143.492,221.352 145.355,220.918C144.496,211.566 145.086,201.105 149.035,192.699C150.762,189.023 153.254,186.031 156.262,183.719C149.766,185.691 143.473,188.309 136.91,190.031" style="fill:rgb(110,199,45);"/>
        </g>
        <g transform="matrix(1.333333,0,0,1.333333,0,0.000006)">
            <path d="M193.426,158.52C192.969,156.16 192.449,154.027 191.262,152.082C190.656,151.086 190.625,150.98 189.957,150.285C189.297,149.598 188.742,149.094 188.395,148.859C184.945,146.555 180.828,145.707 176.395,145.102C171.84,144.48 166.375,144.547 163.488,140.32C160.895,136.52 161.555,130.898 160.605,126.559C160.324,125.27 159.969,124.062 159.539,122.926C154.977,118.746 148.898,116.188 142.219,116.188C128.039,116.188 116.543,127.672 116.543,141.836C116.543,145.426 117.285,148.84 118.613,151.938C117.078,151.656 115.496,151.496 113.875,151.496C99.699,151.496 88.203,162.98 88.203,177.145C88.203,179.637 88.562,182.039 89.227,184.316C94.824,184.195 100.43,184.18 106.031,184.059C116.434,183.844 127.371,183.711 137.367,180.52C145.023,178.074 152.52,174.953 160.426,173.34C168.156,171.766 176.398,171.312 182.855,176.547C183.363,176.445 183.875,176.34 184.383,176.211C186.582,175.672 187.875,175.297 189.461,174.32C190.668,173.578 191.543,172.801 192.191,171.688C193.027,170.254 193.629,168.473 193.773,166.406C193.953,163.793 193.922,161.102 193.426,158.52" style="fill:rgb(250,187,24);"/>
        </g>
        <g transform="matrix(1.333333,0,0,1.333333,0,0.000006)">
            <path d="M170.137,129.57C170.398,131.727 170.379,133.301 170.945,135.145L170.957,135.18C171.062,135.223 171.148,135.258 171.141,135.258C171.434,135.344 171.73,135.426 172.035,135.488C174.465,135.988 176.949,136.145 179.402,136.52C183.77,137.184 188.359,138.203 192.148,140.582C198.676,144.684 201.852,151.836 202.664,159.285C220.777,159.223 240.059,156.898 253.57,143.621C253.887,143.309 254.219,143.066 254.555,142.871C254.566,142.527 254.586,142.184 254.586,141.836C254.586,127.672 243.09,116.188 228.91,116.188C222.57,116.188 216.773,118.488 212.293,122.289C209.754,110.797 199.5,102.199 187.23,102.199C178.012,102.199 169.93,107.055 165.406,114.348C166.703,116.387 167.738,118.598 168.457,120.965C169.312,123.777 169.781,126.66 170.137,129.57" style="fill:rgb(67,188,187);"/>
        </g>
        <g transform="matrix(1.333333,0,0,1.333333,0,0.000006)">
            <path d="M266.938,207.047C266.41,203.352 265.82,199.133 263.242,196.219C258.059,190.344 250.742,187.59 243.16,186.934C243.223,188.543 243.246,190.152 243.246,191.77C243.258,197.566 234.254,197.566 234.246,191.77C234.238,185.926 234.277,180.137 232.078,174.699C230.277,170.242 226.195,167.676 220.742,167.285C220.609,167.277 220.477,167.258 220.352,167.238C214.457,167.98 208.469,168.262 202.555,168.281C202.535,168.461 202.512,168.645 202.484,168.824C201.074,178.633 193.477,183.824 184.219,185.41C179.23,186.266 173.992,186.215 169.086,187.426C165.145,188.398 161.246,190.328 159.145,193.242C156.535,196.863 155.34,200.801 154.695,205.34C154.129,209.32 153.98,213.508 154.156,217.633C158.73,221.855 164.84,224.445 171.559,224.445C180.934,224.445 189.133,219.426 193.613,211.93C198.191,216.18 204.328,218.781 211.07,218.781C214.328,218.781 217.441,218.172 220.309,217.066C224.59,225.27 233.176,230.879 243.082,230.879C254.844,230.879 264.75,222.977 267.789,212.199C267.449,210.516 267.188,208.805 266.938,207.047" style="fill:rgb(205,33,84);"/>
        </g>
        <g transform="matrix(1.333333,0,0,1.333333,0,0.000006)">
            <path d="M260.922,151.496C259.984,151.496 259.059,151.555 258.145,151.652C251.48,157.633 243.754,161.555 235.504,164.078C237.324,165.746 238.836,167.797 239.902,170.273C240.969,172.742 241.699,175.277 242.199,177.859C251.773,178.375 261.672,181.543 268.438,188.586C271.316,191.586 273.305,195.062 274.469,198.93C281.746,194.402 286.598,186.34 286.598,177.145C286.598,162.98 275.098,151.496 260.922,151.496" style="fill:rgb(105,52,144);"/>
        </g>
        <g transform="matrix(1.333333,0,0,1.333333,0,0.000006)">
            <path d="M202.246,217.223C202.246,217.223 205.988,219.691 214.738,220.746C223.496,221.801 226.621,230.863 227.621,233.988C228.621,237.109 232.996,253.223 244.25,262.84C244.868,263.368 249.015,267.002 250.5,269.722C257.78,283.06 285.174,342.437 287.93,342.866C290.879,343.326 304.401,332.713 304.159,331.24C303.953,329.984 277.655,287.084 265.504,261.827C262.703,256.003 258.581,253.876 258.254,253.598C254.879,250.727 252.125,239.859 254.504,234.238C256.879,228.617 257.25,227.379 260.082,224.441C262.914,221.504 212.262,201.078 202.246,217.223" style="fill:rgb(205,33,84);"/>
        </g>
    </g>
    <g transform="matrix(1,0,0,1,0,-5.580384)">
        <g transform="matrix(0.475622,0,0,0.552181,110.291935,99.318333)">
            <path d="M362.475,463.252C336.388,473.213 307.62,478.194 276.169,478.194C245.449,478.194 218.953,472.874 196.681,462.234C174.409,451.594 156.073,437.434 141.673,419.756C127.273,402.077 116.617,382.597 109.705,361.317C102.793,340.037 99.337,318.594 99.337,296.986C99.337,271.45 104.041,246.324 113.449,221.606C122.857,196.889 136.681,174.463 154.921,154.329C173.161,134.194 195.433,118.071 221.737,105.958C248.041,93.844 278.089,87.788 311.881,87.788C345.673,87.788 356.992,94.223 367.1,98.31C379.744,103.422 393.831,109.82 403.753,117.007C421.609,129.938 436.777,145.162 449.257,162.677C461.737,180.192 471.337,199.098 478.057,219.396C484.777,239.694 488.137,260.156 488.137,280.781C488.137,308.609 483.049,334.472 472.873,358.371C462.697,382.27 448.297,403.223 429.673,421.229C419.797,430.778 408.867,439.199 396.884,446.493C391.22,437.417 385.638,428.341 380.137,419.265L378.23,416.117C382.113,413.572 385.917,410.857 389.641,407.97C406.537,394.874 420.265,377.932 430.825,357.143C441.385,336.354 446.665,311.228 446.665,281.763C446.281,263.102 443.305,244.85 437.737,227.008C432.169,209.166 423.913,192.633 412.969,177.409C402.025,162.186 388.105,149.336 371.209,138.86C360.841,131.985 351.625,126.828 343.561,123.391C339.714,121.751 335.904,119.277 321.308,119.217C292.893,119.098 270.505,123.718 247.657,132.721C224.809,141.724 205.513,154.247 189.769,170.289C174.025,186.33 161.929,204.746 153.481,225.535C145.033,246.324 140.809,268.668 140.809,292.567C140.809,326.942 147.241,355.506 160.105,378.26C172.969,401.013 189.769,417.955 210.505,429.086C231.241,440.217 252.745,445.783 275.017,445.783C294.217,445.783 313.897,442.754 334.057,436.698C337.327,435.715 372.393,418.576 377.771,416.302C377.962,416.221 378.117,416.159 378.23,416.117C384.031,425.683 390.743,436.638 396.884,446.493L362.475,463.252Z" style="fill:white;fill-rule:nonzero;"/>
        </g>
    </g>
</svg>
