<?xml version="1.0" encoding="UTF-8" standalone="no"?><!DOCTYPE svg PUBLIC "-//W3C//DTD SVG 1.1//EN" "http://www.w3.org/Graphics/SVG/1.1/DTD/svg11.dtd"><svg width="100%" height="100%" viewBox="0 0 2981 955" version="1.1" xmlns="http://www.w3.org/2000/svg" xmlns:xlink="http://www.w3.org/1999/xlink" xml:space="preserve" xmlns:serif="http://www.serif.com/" style="fill-rule:evenodd;clip-rule:evenodd;stroke-linejoin:round;stroke-miterlimit:2;"><g><g><path d="M1616.591,505.23c-31.142,8.178 -65.043,8.38 -97.049,8.829c-8.851,0.123 -17.691,0.191 -26.554,0.314c13.518,16.771 34.227,27.507 57.449,27.507c0.897,0 1.784,-0.034 2.681,-0.067c8.604,31.142 37.144,54.016 71.056,54.016c5.733,0 11.319,-0.651 16.67,-1.896c-2.468,-26.857 -0.774,-56.899 10.568,-81.041c4.958,-10.556 12.116,-19.15 20.754,-25.791c-18.656,5.665 -36.729,13.181 -55.575,18.129" style="fill:#6ec72d;"/><path d="M1778.896,414.732c-1.313,-6.776 -2.805,-12.901 -6.215,-18.488c-1.739,-2.861 -1.829,-3.164 -3.747,-5.16c-1.896,-1.974 -3.489,-3.422 -4.487,-4.095c-9.906,-6.619 -21.73,-9.053 -34.463,-10.792c-13.08,-1.784 -28.775,-1.593 -37.065,-13.731c-7.449,-10.915 -5.553,-27.058 -8.279,-39.522c-0.808,-3.702 -1.829,-7.168 -3.063,-10.433c-13.103,-12.004 -30.559,-19.352 -49.742,-19.352c-40.722,0 -73.738,32.982 -73.738,73.659c0,10.31 2.131,20.114 5.946,29.01c-4.409,-0.808 -8.952,-1.268 -13.608,-1.268c-40.711,0 -73.726,32.982 -73.726,73.659c0,7.157 1.032,14.056 2.939,20.597c16.076,-0.348 32.174,-0.393 48.261,-0.74c29.874,-0.617 61.285,-0.998 89.993,-10.164c21.988,-7.023 43.516,-15.986 66.221,-20.619c22.201,-4.521 45.871,-5.822 64.415,9.21c1.458,-0.292 2.928,-0.595 4.386,-0.965c6.316,-1.548 10.029,-2.625 14.584,-5.43c3.466,-2.131 5.979,-4.364 7.842,-7.561c2.401,-4.117 4.128,-9.233 4.543,-15.167c0.516,-7.505 0.426,-15.234 -0.998,-22.65" style="fill:#fabb18;"/><path d="M1712.013,331.593c0.752,6.192 0.696,10.713 2.322,16.008l0.034,0.101c0.303,0.123 0.55,0.224 0.527,0.224c0.841,0.247 1.694,0.482 2.569,0.662c6.978,1.436 14.113,1.885 21.158,2.962c12.542,1.907 25.723,4.835 36.605,11.667c18.746,11.779 27.866,32.32 30.2,53.713c52.019,-0.179 107.392,-6.854 146.196,-44.985c0.909,-0.897 1.862,-1.593 2.827,-2.154c0.034,-0.987 0.09,-1.974 0.09,-2.973c0,-40.677 -33.015,-73.659 -73.738,-73.659c-18.207,0 -34.855,6.608 -47.722,17.523c-7.292,-33.004 -36.74,-57.696 -71.976,-57.696c-26.475,0 -49.686,13.944 -62.676,34.889c3.724,5.856 6.697,12.205 8.761,19.004c2.457,8.077 3.803,16.356 4.824,24.714" style="fill:#43bcbb;"/><path d="M1990.013,554.096c-1.514,-10.612 -3.208,-22.728 -10.612,-31.097c-14.887,-16.872 -35.898,-24.781 -57.673,-26.666c0.179,4.622 0.247,9.244 0.247,13.888c0.034,16.648 -25.824,16.648 -25.847,0c-0.022,-16.783 0.09,-33.408 -6.226,-49.024c-5.172,-12.8 -16.895,-20.17 -32.555,-21.292c-0.381,-0.022 -0.763,-0.079 -1.122,-0.135c-16.928,2.131 -34.126,2.939 -51.11,2.995c-0.056,0.516 -0.123,1.043 -0.202,1.559c-4.05,28.169 -25.869,43.078 -52.457,47.633c-14.326,2.457 -29.369,2.311 -43.46,5.789c-11.319,2.793 -22.515,8.335 -28.55,16.704c-7.494,10.399 -10.927,21.707 -12.778,34.743c-1.627,11.431 -2.053,23.457 -1.548,35.304c13.137,12.127 30.682,19.565 49.977,19.565c26.924,0 50.471,-14.415 63.338,-35.943c13.148,12.205 30.772,19.677 50.134,19.677c9.356,0 18.297,-1.75 26.531,-4.925c12.295,23.558 36.953,39.668 65.402,39.668c33.778,0 62.228,-22.695 70.956,-53.646c-0.976,-4.835 -1.728,-9.749 -2.446,-14.797" style="fill:#cd2154;"/><path d="M1972.737,394.561c-2.692,0 -5.351,0.168 -7.976,0.449c-19.138,17.175 -41.328,28.438 -65.021,35.685c5.228,4.79 9.569,10.68 12.632,17.792c3.063,7.09 5.16,14.371 6.596,21.786c27.496,1.481 55.923,10.579 75.353,30.805c8.268,8.616 13.978,18.6 17.321,29.706c20.9,-13.002 34.833,-36.156 34.833,-62.564c0,-40.677 -33.027,-73.659 -73.738,-73.659" style="fill:#693490;"/><path d="M1804.227,583.32c0,0 10.747,7.09 35.876,10.119c25.151,3.029 34.126,29.055 36.998,38.03c2.872,8.963 15.436,55.239 47.756,82.858c1.775,1.517 13.686,11.953 17.95,19.765c20.907,38.304 92.522,205.057 107.495,210.062c2.625,0.878 24.833,6.133 53.467,5.936c191.268,-1.317 863.624,-3.526 868.256,-6.247c9.393,-5.518 10.514,-105.165 3.555,-105.017c-144.487,3.077 -861.973,78.89 -873.245,67.056c-12.636,-13.267 -81.543,-121.927 -116.437,-194.462c-8.046,-16.726 -19.884,-22.837 -20.822,-23.635c-9.693,-8.245 -17.601,-39.455 -10.77,-55.598c6.821,-16.143 7.886,-19.699 16.02,-28.135c8.133,-8.436 -137.334,-67.096 -166.098,-20.731" style="fill:#cd2154;"/></g><g><path d="M1897.814,905.044c-51.698,22.918 -108.71,34.377 -171.037,34.377c-60.88,0 -113.388,-12.24 -157.526,-36.72c-44.138,-24.48 -80.475,-57.057 -109.013,-97.732c-28.537,-40.674 -49.655,-85.492 -63.353,-134.452c-13.698,-48.96 -20.547,-98.297 -20.547,-148.01c0,-58.752 9.322,-116.562 27.967,-173.431c18.644,-56.869 46.04,-108.465 82.188,-154.789c36.147,-46.324 80.285,-83.42 132.413,-111.29c52.128,-27.87 111.676,-41.804 178.644,-41.804c66.968,0 89.398,14.805 109.43,24.209c25.056,11.762 52.973,26.483 72.638,43.017c35.386,29.753 65.446,64.778 90.178,105.076c24.732,40.298 43.757,83.797 57.075,130.497c13.317,46.7 19.976,93.777 19.976,141.231c0,64.025 -10.083,123.53 -30.25,178.516c-20.166,54.986 -48.704,103.193 -85.612,144.62c-19.574,21.97 -41.234,41.345 -64.981,58.126c-11.225,-20.882 -22.288,-41.763 -33.188,-62.645l-3.781,-7.241c7.696,-5.855 15.234,-12.103 22.616,-18.745c33.484,-30.129 60.689,-69.109 81.617,-116.939c20.927,-47.83 31.391,-105.641 31.391,-173.431c-0.761,-42.934 -6.659,-84.927 -17.693,-125.978c-11.034,-41.051 -27.396,-79.089 -49.084,-114.114c-21.688,-35.025 -49.274,-64.59 -82.758,-88.693c-20.547,-15.818 -38.811,-27.681 -54.792,-35.59c-7.625,-3.774 -15.175,-9.464 -44.101,-9.604c-56.313,-0.272 -100.679,10.357 -145.958,31.071c-45.279,20.714 -83.519,49.525 -114.72,86.433c-31.201,36.908 -55.172,79.278 -71.914,127.108c-16.742,47.83 -25.113,99.238 -25.113,154.224c0,79.089 12.747,144.809 38.24,197.158c25.493,52.35 58.787,91.329 99.881,116.939c41.094,25.61 83.71,38.415 127.847,38.415c38.05,0 77.051,-6.967 117.003,-20.902c6.411,-2.236 76.003,-38.742 86.267,-46.746c0.486,-0.379 0.98,-0.48 1.272,-0.605c11.497,22.009 24.798,47.211 36.968,69.886l-68.19,38.559Z" style="fill:#fff;"/></g><g transform="matrix(0.970874,0,0,1,-3.866813,0)"><g transform="matrix(1236,0,0,1236,1366.054817,939.521825)"></g><text x="-102.313px" y="939.522px" style="font-family:'Ubuntu-Regular', 'Ubuntu', sans-serif;font-size:1236px;fill:#fff;">Re</text></g><g transform="matrix(0.969387,-0.053705,0.055316,0.998469,89.483546,111.427286)"><g transform="matrix(1030,0,0,1030,2937.283322,844.340374)"></g><text x="2118.433px" y="844.34px" style="font-family:'Ubuntu-Regular', 'Ubuntu', sans-serif;font-size:1030px;fill:#fff;">al</text></g></g></svg>